<svg width="24" height="25" viewBox="0 0 24 25" fill="none" xmlns="http://www.w3.org/2000/svg">
<path d="M15.0487 15.7412H17.5577C18.4187 15.7412 19.1827 16.2922 19.4547 17.1092L20.1217 19.1092C20.5537 20.4042 19.5897 21.7412 18.2247 21.7412H5.77473C4.40973 21.7412 3.44573 20.4042 3.87773 19.1092L4.54473 17.1092C4.81573 16.2922 5.58073 15.7412 6.44173 15.7412H8.95173" stroke="white" stroke-width="1.5" stroke-linecap="round" stroke-linejoin="round"/>
<path fill-rule="evenodd" clip-rule="evenodd" d="M12 18.7412C12 18.7412 6 13.9492 6 9.57421C6 6.35321 8.686 3.74121 12 3.74121C15.314 3.74121 18 6.35321 18 9.57421C18 13.9492 12 18.7412 12 18.7412Z" stroke="white" stroke-width="1.5" stroke-linecap="round" stroke-linejoin="round"/>
<path d="M13.4142 8.327C14.1953 9.10805 14.1953 10.3744 13.4142 11.1554C12.6332 11.9365 11.3668 11.9365 10.5858 11.1554C9.80474 10.3744 9.80474 9.10805 10.5858 8.327C11.3668 7.54595 12.6332 7.54595 13.4142 8.327" stroke="white" stroke-width="1.5" stroke-linecap="round" stroke-linejoin="round"/>
</svg>
