<svg width="24" height="25" viewBox="0 0 24 25" fill="none" xmlns="http://www.w3.org/2000/svg">
<path d="M15.001 21.745H17.7161C18.8211 21.745 19.7169 20.8492 19.7169 19.7442V4.73797C19.7169 4.18545 19.269 3.73755 18.7165 3.73755H16.8588C16.3062 3.73755 15.8583 4.18545 15.8583 4.73797V7.04493" stroke="white" stroke-width="1.5" stroke-linecap="round" stroke-linejoin="round"/>
<path fill-rule="evenodd" clip-rule="evenodd" d="M8.78608 13.7937C6.66744 13.8277 4.96777 15.5549 4.96777 17.6738C4.96777 19.7927 6.66744 21.5199 8.78608 21.5539C11.9474 21.5539 12.7227 17.6723 14.5345 16.6409C13.1844 14.8266 11.0474 13.7681 8.78608 13.7937Z" stroke="white" stroke-width="1.5" stroke-linecap="round" stroke-linejoin="round"/>
<path d="M9.25426 17.2512C7.08451 17.6144 5.17237 18.885 3.99707 20.7447" stroke="white" stroke-width="1.5" stroke-linecap="round" stroke-linejoin="round"/>
<path d="M2.99609 11.4549L10.6993 4.85216C11.4481 4.21172 12.5516 4.21172 13.3004 4.85216L21.0036 11.4549" stroke="white" stroke-width="1.5" stroke-linecap="round" stroke-linejoin="round"/>
</svg>
