<svg width="30" height="31" viewBox="0 0 30 31" fill="none" xmlns="http://www.w3.org/2000/svg">
<g clip-path="url(#clip0_2_7173)">
<path d="M30 15.7412C30 7.45606 23.2852 0.741211 15 0.741211C6.71484 0.741211 0 7.45606 0 15.7412C0 24.0264 6.71484 30.7412 15 30.7412C15.0879 30.7412 15.1758 30.7412 15.2637 30.7354V19.0635H12.041V15.3076H15.2637V12.542C15.2637 9.33691 17.2207 7.59082 20.0801 7.59082C21.4512 7.59082 22.6289 7.69043 22.9688 7.7373V11.0889H21C19.4473 11.0889 19.1426 11.8271 19.1426 12.9111V15.3018H22.8633L22.377 19.0576H19.1426V30.1611C25.4121 28.3623 30 22.5908 30 15.7412Z" fill="#0095E3"/>
</g>
<defs>
<clipPath id="clip0_2_7173">
<rect width="30" height="30" fill="white" transform="translate(0 0.741211)"/>
</clipPath>
</defs>
</svg>
