<svg width="24" height="25" viewBox="0 0 24 25" fill="none" xmlns="http://www.w3.org/2000/svg">
<path fill-rule="evenodd" clip-rule="evenodd" d="M18.9645 17.3514L17.7915 16.1784C17.2055 15.5924 16.2555 15.5924 15.6705 16.1784L14.7485 17.1004C14.5425 17.3064 14.2305 17.3754 13.9645 17.2584C12.6285 16.6734 11.3085 15.7864 10.1315 14.6094C8.95954 13.4374 8.07554 12.1234 7.48954 10.7924C7.36754 10.5174 7.43854 10.1944 7.65154 9.98142L8.47754 9.15542C9.14854 8.48442 9.14854 7.53542 8.56254 6.94942L7.38954 5.77642C6.60854 4.99542 5.34254 4.99542 4.56154 5.77642L3.90954 6.42742C3.16854 7.16842 2.85954 8.23742 3.05954 9.29742C3.55354 11.9104 5.07154 14.7714 7.52054 17.2204C9.96954 19.6694 12.8305 21.1874 15.4435 21.6814C16.5035 21.8814 17.5725 21.5724 18.3135 20.8314L18.9645 20.1804C19.7455 19.3994 19.7455 18.1334 18.9645 17.3514V17.3514Z" stroke="white" stroke-width="1.5" stroke-linecap="round" stroke-linejoin="round"/>
<path d="M13 7.7323C14.031 7.7183 15.067 8.1003 15.854 8.8873" stroke="white" stroke-width="1.5" stroke-linecap="round" stroke-linejoin="round"/>
<path d="M18.682 6.05932C17.113 4.49032 15.056 3.70532 13 3.70532" stroke="white" stroke-width="1.5" stroke-linecap="round" stroke-linejoin="round"/>
<path d="M17.0085 11.7412C17.0225 10.7102 16.6405 9.67421 15.8535 8.88721" stroke="white" stroke-width="1.5" stroke-linecap="round" stroke-linejoin="round"/>
<path d="M18.6816 6.05933C20.2506 7.62833 21.0356 9.68533 21.0356 11.7413" stroke="white" stroke-width="1.5" stroke-linecap="round" stroke-linejoin="round"/>
</svg>
