<svg width="37" height="36" viewBox="0 0 37 36" fill="none" xmlns="http://www.w3.org/2000/svg">
<circle cx="18.0146" cy="18" r="18" fill="#CF1F1F"/>
<g clip-path="url(#clip0_2_14308)">
<path d="M18.471 10.4153C14.5721 10.4153 10.7188 12.4947 10.7188 15.8601C10.7188 18.0003 12.2236 19.2163 13.1356 19.2163C13.5118 19.2163 13.7284 18.3773 13.7284 18.1401C13.7284 17.8574 12.8278 17.2555 12.8278 16.079C12.8278 13.6347 15.1535 11.9019 18.1632 11.9019C20.751 11.9019 22.6663 13.0784 22.6663 15.2399C22.6663 16.8542 21.8569 19.8821 19.2348 19.8821C18.2886 19.8821 17.4791 19.3349 17.4791 18.5506C17.4791 17.4014 18.4824 16.2887 18.4824 15.1031C18.4824 13.0906 14.9141 13.4554 14.9141 15.8874C14.9141 16.3982 14.9939 16.9636 15.2789 17.4288C14.7545 19.2346 13.6828 21.925 13.6828 23.7856C13.6828 24.3602 13.7854 24.9256 13.8538 25.5002C13.983 25.6157 13.9184 25.6035 14.116 25.5458C16.0313 23.4481 15.9629 23.0377 16.8293 20.2925C17.2967 21.0039 18.5052 21.3869 19.4628 21.3869C23.4985 21.3869 25.3112 18.2405 25.3112 15.4041C25.3112 12.3853 22.0507 10.4153 18.471 10.4153Z" fill="white"/>
</g>
<defs>
<clipPath id="clip0_2_14308">
<rect width="14.5924" height="15.5652" fill="white" transform="translate(10.7188 10.2178)"/>
</clipPath>
</defs>
</svg>
