<svg width="37" height="36" viewBox="0 0 37 36" fill="none" xmlns="http://www.w3.org/2000/svg">
<circle cx="18.1318" cy="18" r="18" fill="#40BAFF"/>
<g clip-path="url(#clip0_2_14320)">
<path d="M15.8471 25.3843C15.0687 25.3843 14.2675 25.3213 13.4615 25.1949C12.042 24.9722 10.605 24.2296 10.1983 24.0073L9.13184 23.4242L10.2865 23.0445C11.5487 22.6295 12.3165 22.372 13.2669 21.9688C12.3152 21.5079 11.5818 20.6789 11.2287 19.6071L10.9601 18.7917L11.1804 18.8253C10.9715 18.6148 10.8066 18.4011 10.6787 18.2068C10.224 17.5162 9.98327 16.6723 10.0345 15.9491L10.085 15.2373L10.5112 15.4024C10.3314 15.0629 10.2015 14.7004 10.1251 14.3204C9.93905 13.3937 10.0948 12.4092 10.5638 11.5483L10.935 10.8668L11.4314 11.4631C13.0015 13.3492 14.9901 14.468 17.3504 14.7955C17.254 14.131 17.3262 13.4897 17.5653 12.9148C17.8437 12.2455 18.3389 11.6779 18.997 11.2733C19.7278 10.8241 20.6142 10.6065 21.4926 10.6604C22.4247 10.7177 23.2709 11.0669 23.943 11.671C24.2712 11.5857 24.513 11.4947 24.8399 11.3717C25.0365 11.2976 25.2596 11.2136 25.5386 11.1175L26.5669 10.7631L25.8964 12.6783C25.9406 12.6746 25.9862 12.6715 26.0338 12.6694L27.1319 12.6197L26.4829 13.5067C26.4457 13.5575 26.4362 13.5719 26.423 13.5919C26.3707 13.6707 26.3056 13.7687 25.4147 14.9583C25.1917 15.2561 25.0804 15.6441 25.1011 16.0509C25.1801 17.5966 24.9904 18.9952 24.5371 20.2075C24.1083 21.3545 23.4439 22.3386 22.5626 23.1325C21.4719 24.1147 20.0812 24.7872 18.4288 25.1311C17.6183 25.2997 16.7479 25.3843 15.8471 25.3843Z" fill="white"/>
</g>
<defs>
<clipPath id="clip0_2_14320">
<rect width="18" height="18" fill="white" transform="translate(9.13184 9)"/>
</clipPath>
</defs>
</svg>
