<svg width="37" height="36" viewBox="0 0 37 36" fill="none" xmlns="http://www.w3.org/2000/svg">
<circle cx="18.2969" cy="18" r="18" fill="#43D100"/>
<g clip-path="url(#clip0_2_7359)">
<path d="M24.2622 21.8924C23.5762 21.215 22.7197 21.215 22.038 21.8924C21.5179 22.408 20.9979 22.9237 20.4866 23.448C20.3468 23.5922 20.2288 23.6228 20.0584 23.5267C19.7219 23.3432 19.3636 23.1946 19.0402 22.9936C17.5326 22.0453 16.2697 20.8261 15.151 19.4539C14.596 18.7722 14.1022 18.0425 13.757 17.2209C13.6871 17.0549 13.7002 16.9456 13.8356 16.8102C14.3557 16.3076 14.8626 15.792 15.3739 15.2763C16.0861 14.5597 16.0861 13.7206 15.3695 12.9996C14.9631 12.5888 14.5567 12.1868 14.1503 11.776C13.7308 11.3565 13.3156 10.9326 12.8918 10.5175C12.2057 9.84891 11.3492 9.84891 10.6675 10.5219C10.1431 11.0375 9.64054 11.5663 9.10742 12.0732C8.61362 12.5408 8.36453 13.1132 8.31209 13.7818C8.22907 14.8699 8.49563 15.8969 8.87144 16.8976C9.64054 18.9689 10.8117 20.8086 12.2319 22.4954C14.1503 24.7765 16.4401 26.5813 19.1189 27.8835C20.325 28.4691 21.5747 28.9192 22.9338 28.9934C23.8689 29.0459 24.6817 28.8099 25.3329 28.0801C25.7786 27.582 26.2811 27.1275 26.7531 26.6512C27.4523 25.9433 27.4566 25.0868 26.7618 24.3876C25.9315 23.5529 25.0969 22.7226 24.2622 21.8924Z" fill="white"/>
<path d="M23.4274 18.4091L25.0399 18.1338C24.7864 16.6524 24.0873 15.3108 23.0254 14.2446C21.9023 13.1215 20.4821 12.4136 18.9177 12.1951L18.6904 13.8163C19.9009 13.9867 21.0021 14.533 21.8717 15.4026C22.6933 16.2241 23.2308 17.2642 23.4274 18.4091Z" fill="white"/>
<path d="M25.9486 11.3998C24.087 9.53821 21.7316 8.3627 19.1315 8L18.9043 9.62123C21.1504 9.93587 23.1868 10.9541 24.7949 12.5578C26.32 14.0829 27.3207 16.01 27.6834 18.1294L29.2959 17.8541C28.872 15.3982 27.714 13.1696 25.9486 11.3998Z" fill="white"/>
</g>
<defs>
<clipPath id="clip0_2_7359">
<rect width="21" height="21" fill="white" transform="translate(8.29688 8)"/>
</clipPath>
</defs>
</svg>
