<svg width="30" height="31" viewBox="0 0 30 31" fill="none" xmlns="http://www.w3.org/2000/svg">
<g clip-path="url(#clip0_2_7192)">
<path d="M13.1309 18.5511L18.0102 15.7409L13.1309 12.9307V18.5511Z" fill="#CE1515"/>
<path d="M15 0.741211C6.717 0.741211 0 7.45821 0 15.7412C0 24.0242 6.717 30.7412 15 30.7412C23.283 30.7412 30 24.0242 30 15.7412C30 7.45821 23.283 0.741211 15 0.741211ZM24.3727 15.7565C24.3727 15.7565 24.3727 18.7986 23.9868 20.2655C23.7705 21.0684 23.1374 21.7015 22.3345 21.9176C20.8676 22.3037 15 22.3037 15 22.3037C15 22.3037 9.14772 22.3037 7.66548 21.9023C6.86256 21.6862 6.22948 21.0529 6.01318 20.25C5.62706 18.7986 5.62706 15.7412 5.62706 15.7412C5.62706 15.7412 5.62706 12.6994 6.01318 11.2325C6.22925 10.4296 6.8779 9.7809 7.66548 9.56483C9.13239 9.17871 15 9.17871 15 9.17871C15 9.17871 20.8676 9.17871 22.3345 9.58017C23.1374 9.79623 23.7705 10.4296 23.9868 11.2325C24.3883 12.6994 24.3727 15.7565 24.3727 15.7565Z" fill="#CE1515"/>
</g>
<defs>
<clipPath id="clip0_2_7192">
<rect width="30" height="30" fill="white" transform="translate(0 0.741211)"/>
</clipPath>
</defs>
</svg>
