<svg width="37" height="37" viewBox="0 0 37 37" fill="none" xmlns="http://www.w3.org/2000/svg">
<circle cx="18.2969" cy="18.4824" r="18" fill="white"/>
<mask id="mask0_2_7342" style="mask-type:alpha" maskUnits="userSpaceOnUse" x="0" y="0" width="37" height="37">
<circle cx="18.2969" cy="18.4824" r="18" fill="white"/>
</mask>
<g mask="url(#mask0_2_7342)">
<rect x="14.8398" y="34.4062" width="8.30769" height="4.15385" fill="#005BE0"/>
<path d="M36.2497 26.6897C36.2435 26.616 36.2866 26.5053 36.1759 26.4807C36.0837 26.4623 36.0407 26.5545 35.9915 26.616C35.887 26.7266 35.7825 26.8434 35.6719 26.9479C33.3912 29.0626 30.7418 30.5072 27.7357 31.3186C24.9633 32.0686 22.1602 32.2837 19.314 31.8227C18.0661 31.6198 16.8612 31.2694 15.6502 30.9252C15.1769 30.79 14.6974 30.6977 14.1995 30.8391C13.9044 30.9252 13.6032 30.9805 13.3081 31.0604C11.7774 31.4784 10.2591 31.9518 8.65463 31.9702C7.90466 31.9764 7.16084 31.9764 6.41702 31.878C6.26949 31.8596 6.06663 31.8596 6.02974 31.6936C5.99901 31.5338 6.18343 31.4416 6.30637 31.3555C6.56456 31.1711 6.83504 31.0051 7.08707 30.8145C7.91081 30.1998 8.67307 29.5175 9.1587 28.5831C9.36156 28.1958 9.44148 27.7839 9.26321 27.3536C9.20788 27.1631 9.06649 27.0217 8.94355 26.8741C8.67307 26.5545 8.39644 26.2348 8.11982 25.9213C5.66091 23.1428 4.14253 19.9708 4.01344 16.2025C3.93353 13.8973 4.25933 11.6597 5.18142 9.545C6.66291 6.12712 9.04805 3.48995 12.2692 1.59659C12.3614 1.54126 12.4967 1.51667 12.5581 1.36914C9.78572 1.40602 7.04404 1.35685 4.29622 1.42447C3.02373 1.44906 1.95411 1.87936 1.0689 2.77072C0.361967 3.47151 -0.172846 4.27065 -0.240465 5.30339C-0.277349 5.86279 -0.301938 6.42834 -0.308085 6.99389C-0.338822 15.348 -0.369558 23.7022 -0.394147 32.0624C-0.394147 32.1608 -0.400294 32.2714 -0.363411 32.3637C-0.142109 33.0276 0.0914869 33.6853 0.527943 34.2386C1.21644 35.1053 1.99099 35.8614 3.14668 36.0274C4.00729 36.1504 4.88021 36.1872 5.74697 36.1688C6.03589 36.1811 6.31867 36.2057 6.60759 36.2057C8.19358 36.218 9.78572 36.2303 11.3717 36.2303C18.0415 36.2426 24.7113 36.3532 31.3749 36.2364C32.6658 36.2118 33.7846 35.8061 34.7313 34.9455C35.6473 34.1095 36.2497 33.1136 36.2497 31.8104C36.2435 30.7162 36.2804 29.622 36.2927 28.5216C36.2989 27.913 36.3112 27.2983 36.2497 26.6897Z" fill="#005BE0"/>
<path d="M11.9789 18.2671C12.4093 18.347 12.8211 18.3225 13.2268 18.3348C13.9215 18.347 14.6223 18.347 15.3169 18.3532C15.698 18.3593 16.0484 18.4208 16.3005 18.7528C16.5218 19.0478 16.5402 19.2814 16.3619 19.6011C16.1714 19.9392 15.9378 20.099 15.5136 20.0867C13.7555 20.0375 11.9912 20.1113 10.2331 20.013C9.84585 19.9884 9.56307 19.847 9.39709 19.4966C9.23112 19.1462 9.26186 18.8265 9.5016 18.4946C10.6388 16.927 11.8683 15.4332 13.0301 13.8903C13.1531 13.7243 13.2637 13.5522 13.3928 13.3985C13.5649 13.1833 13.4727 13.128 13.2514 13.1096C12.3293 13.0235 11.4073 13.1096 10.4852 13.0481C10.2577 13.0358 10.0303 13.0235 9.83355 12.9067C9.55692 12.7407 9.3971 12.4272 9.44013 12.1629C9.49545 11.8432 9.78437 11.5297 10.1102 11.4867C10.4729 11.4437 10.8417 11.4191 11.2105 11.4068C12.6551 11.376 14.0998 11.3207 15.5321 11.5236C16.1898 11.6158 16.4296 12.0707 16.1406 12.6793C15.7472 13.5091 15.1448 14.1976 14.5854 14.9169C13.7739 15.9681 12.9441 17.0131 12.1203 18.0581C12.0773 18.1135 12.0343 18.1811 11.9789 18.2671Z" fill="#005BE0"/>
<path d="M26.0932 15.3287C26.0932 16.7979 26.0932 18.0335 26.0932 19.2752C26.0932 19.6317 25.8105 19.9883 25.4048 20.1358C25.0483 20.2649 24.6856 20.1666 24.4397 19.8653C24.2737 19.6625 24.1877 19.4289 24.1754 19.1584C24.1016 16.9884 24.1385 14.8184 24.1754 12.6484C24.1815 12.2919 24.2061 11.9292 24.1693 11.5727C24.1385 11.2653 24.2615 11.0747 24.5012 10.9211C24.8577 10.6936 25.2265 10.6567 25.6138 10.8166C26.0072 10.9764 26.0502 11.3268 26.0625 11.6833C26.1301 12.9804 26.0809 14.2713 26.0932 15.3287Z" fill="#005BE0"/>
<path d="M23.1663 14.3389C23.0741 13.6688 22.4286 13.3062 21.8753 13.675C21.4081 13.9885 21.0946 13.9209 20.6213 13.6873C19.0107 12.8943 16.853 14.1114 16.5702 15.9187C16.478 16.5027 16.4965 17.0806 16.5702 17.6584C16.8469 19.7423 19.0906 21.0271 20.9287 19.8653C21.1991 19.6932 21.3836 19.7177 21.6171 19.9268C21.9122 20.1911 22.2749 20.2649 22.6437 20.0927C23.0126 19.9206 23.1724 19.6071 23.2031 19.2075C23.2523 18.5744 23.2708 17.9412 23.2646 17.308C23.2585 16.3183 23.3015 15.3225 23.1663 14.3389ZM20.9471 17.9043C20.4061 18.7403 19.2627 18.7403 18.7156 17.9043C18.3407 17.3326 18.353 16.3613 18.7464 15.8081C19.0722 15.347 19.5886 15.1257 20.1049 15.2364C20.7135 15.3655 21.1192 15.8019 21.2299 16.4658C21.2483 16.5888 21.2483 16.7117 21.2606 16.8347C21.2606 17.222 21.1561 17.5785 20.9471 17.9043Z" fill="#005BE0"/>
<path d="M28.7801 13.7541C27.4523 14.4118 26.8929 15.5675 26.9359 17.0306C26.9605 17.8727 27.1695 18.6534 27.7535 19.2928C28.6694 20.2886 29.8313 20.4669 31.0791 20.2149C32.6406 19.9013 33.5995 18.592 33.5934 16.8646C33.5934 16.7908 33.5934 16.7232 33.5934 16.6494C33.6241 14.1721 30.8701 12.7152 28.7801 13.7541ZM30.7103 18.4444C30.2185 18.6412 29.5792 18.4629 29.2165 17.9834C28.9583 17.6453 28.86 17.2519 28.8538 16.7416C28.8907 16.17 29.112 15.6228 29.7575 15.3155C30.2862 15.0573 30.741 15.2048 31.1468 15.5429C31.8844 16.1515 31.9521 17.9465 30.7103 18.4444Z" fill="#005BE0"/>
</g>
</svg>
