<svg width="17" height="17" viewBox="0 0 17 17" fill="none" xmlns="http://www.w3.org/2000/svg">
<path d="M16.6836 14.4695L13.5586 11.3445C13.4023 11.2195 13.2148 11.1257 13.0273 11.1257H12.5273C13.3711 10.032 13.9023 8.65695 13.9023 7.1257C13.9023 3.5632 10.9648 0.625702 7.40234 0.625702C3.80859 0.625702 0.902344 3.5632 0.902344 7.1257C0.902344 10.7195 3.80859 13.6257 7.40234 13.6257C8.90234 13.6257 10.2773 13.1257 11.4023 12.2507V12.782C11.4023 12.9695 11.4648 13.157 11.6211 13.3132L14.7148 16.407C15.0273 16.7195 15.4961 16.7195 15.7773 16.407L16.6523 15.532C16.9648 15.2507 16.9648 14.782 16.6836 14.4695ZM7.40234 11.1257C5.18359 11.1257 3.40234 9.34445 3.40234 7.1257C3.40234 4.9382 5.18359 3.1257 7.40234 3.1257C9.58984 3.1257 11.4023 4.9382 11.4023 7.1257C11.4023 9.34445 9.58984 11.1257 7.40234 11.1257Z" fill="#3E3E3E"/>
</svg>
