<svg width="59" height="57" viewBox="0 0 59 57" fill="none" xmlns="http://www.w3.org/2000/svg">
<circle cx="30.5933" cy="27.5" r="27.5" fill="#E11B51"/>
<mask id="mask0" mask-type="alpha" maskUnits="userSpaceOnUse" x="3" y="0" width="56" height="55">
<circle cx="30.5933" cy="27.5" r="27" fill="#E11B51" stroke="#E11B51"/>
</mask>
<g mask="url(#mask0)">
<g opacity="0.15">
<circle cx="27.5" cy="31.5" r="27.5" fill="white"/>
<circle cx="27.5" cy="31.5" r="27.5" fill="url(#paint0_linear)"/>
</g>
</g>
<path d="M32.9965 50.6684C32.9359 49.3299 32.1192 48.0485 30.4998 46.7506C28.5943 45.2234 27.0998 44.5121 25.7966 44.5121C24.1692 44.5121 23.1366 45.5717 22.0434 46.6937C21.9318 46.8082 21.8185 46.9244 21.7022 47.0422C21.6352 47.11 21.5277 47.188 21.2903 47.188H21.2902C20.6 47.188 18.8165 46.5645 14.6275 42.3908C12.8111 40.5796 11.4832 39.038 10.6807 37.8087C9.88323 36.5869 9.60751 35.6553 9.94357 35.3159C10.059 35.1992 10.1735 35.0851 10.2861 34.9729C11.2775 33.9849 12.2139 33.0518 12.3986 31.6906C12.5947 30.245 11.9056 28.6388 10.1647 26.4828C8.81859 24.8122 7.49438 24 6.11622 24C4.24609 24 2.80076 25.5391 1.63959 26.7757C1.43505 26.9938 1.24177 27.1995 1.05381 27.39C-0.347649 28.8058 -0.351441 31.8435 1.04352 35.5159C2.5545 39.4938 5.52231 43.8139 9.40015 47.68C16.3015 54.5591 22.8747 57 26.4066 57C27.8339 57 28.96 56.6238 29.6632 55.9123C29.853 55.7202 30.0575 55.5232 30.2739 55.3148C31.5259 54.109 33.0842 52.6087 32.9965 50.6684Z" fill="white"/>
<path d="M32.9965 50.6684C32.9359 49.3299 32.1192 48.0485 30.4998 46.7506C28.5943 45.2234 27.0998 44.5121 25.7966 44.5121C24.1692 44.5121 23.1366 45.5717 22.0434 46.6937C21.9318 46.8082 21.8185 46.9244 21.7022 47.0422C21.6352 47.11 21.5277 47.188 21.2903 47.188H21.2902C20.6 47.188 18.8165 46.5645 14.6275 42.3908C12.8111 40.5796 11.4832 39.038 10.6807 37.8087C9.88323 36.5869 9.60751 35.6553 9.94357 35.3159C10.059 35.1992 10.1735 35.0851 10.2861 34.9729C11.2775 33.9849 12.2139 33.0518 12.3986 31.6906C12.5947 30.245 11.9056 28.6388 10.1647 26.4828C8.81859 24.8122 7.49438 24 6.11622 24C4.24609 24 2.80076 25.5391 1.63959 26.7757C1.43505 26.9938 1.24177 27.1995 1.05381 27.39C-0.347649 28.8058 -0.351441 31.8435 1.04352 35.5159C2.5545 39.4938 5.52231 43.8139 9.40015 47.68C16.3015 54.5591 22.8747 57 26.4066 57C27.8339 57 28.96 56.6238 29.6632 55.9123C29.853 55.7202 30.0575 55.5232 30.2739 55.3148C31.5259 54.109 33.0842 52.6087 32.9965 50.6684Z" fill="url(#paint1_linear)"/>
<defs>
<linearGradient id="paint0_linear" x1="27.5" y1="4" x2="27.5" y2="59" gradientUnits="userSpaceOnUse">
<stop stop-color="white"/>
<stop offset="1" stop-color="white" stop-opacity="0"/>
</linearGradient>
<linearGradient id="paint1_linear" x1="16.5" y1="24" x2="16.5" y2="57" gradientUnits="userSpaceOnUse">
<stop stop-color="white"/>
<stop offset="1" stop-color="white" stop-opacity="0"/>
</linearGradient>
</defs>
</svg>
